<?xml version="1.0" encoding="utf-8"?>
<!-- Generator: Adobe Illustrator 23.0.4, SVG Export Plug-In . SVG Version: 6.00 Build 0)  -->
<svg version="1.1" id="Layer_1" xmlns="http://www.w3.org/2000/svg" xmlns:xlink="http://www.w3.org/1999/xlink" x="0px" y="0px"
	 viewBox="0 0 23 23" style="enable-background:new 0 0 23 23;" xml:space="preserve">
<style type="text/css">
	.st0{fill:#FFFFFF;}
</style>
<g id="Notepad">
	<path class="st0" d="M8.99,4.31V3.63h1.92v0.68c0,0.36,0.3,0.66,0.66,0.66h0.16c0.36,0,0.66-0.3,0.66-0.66V3.63h1.92v0.68
		c0,0.36,0.3,0.66,0.66,0.66h0.16c0.36,0,0.66-0.3,0.66-0.66V3.63h0.39l1.25,1.23v1.96h1.31V4.31l-2.03-1.99h-0.93V1.66
		c0-0.36-0.3-0.66-0.66-0.66h-0.16c-0.36,0-0.66,0.3-0.66,0.66v0.67h-1.92V1.66c0-0.36-0.3-0.66-0.66-0.66h-0.16
		c-0.36,0-0.66,0.3-0.66,0.66v0.67H8.99V1.66C8.99,1.3,8.69,1,8.33,1H8.17C7.81,1,7.51,1.3,7.51,1.66v0.67H5.59V1.66
		C5.59,1.3,5.29,1,4.93,1H4.77C4.41,1,4.11,1.3,4.11,1.66v0.67H1V22h5.81l0.33-1.31H2.31V3.63h1.8v0.68c0,0.36,0.3,0.66,0.66,0.66
		h0.16c0.36,0,0.66-0.3,0.66-0.66V3.63h1.92v0.68c0,0.36,0.3,0.66,0.66,0.66h0.16C8.69,4.97,8.99,4.67,8.99,4.31z"/>
	<path class="st0" d="M21.61,10.98l-2.1-2.1c-0.51-0.51-1.34-0.52-1.84-0.02c0,0,0,0,0,0l0,0l-7.67,7.66l-0.15,0.15l-1.33,5.29
		l5.3-1.33l0.49-0.5l0,0l7.33-7.32h0c0,0,0,0,0,0C22.13,12.31,22.12,11.49,21.61,10.98z M10.38,17.2l2.9,2.89l-2.72,0.68l-0.85-0.89
		L10.38,17.2z M13.81,18.3l-1.64-1.64l5.5-5.49l1.64,1.64L13.81,18.3z"/>
</g>
</svg>
