<?xml version="1.0" encoding="utf-8"?>
<!-- Generator: Adobe Illustrator 23.0.4, SVG Export Plug-In . SVG Version: 6.00 Build 0)  -->
<svg version="1.1" id="Layer_1" xmlns="http://www.w3.org/2000/svg" xmlns:xlink="http://www.w3.org/1999/xlink" x="0px" y="0px"
	 viewBox="0 0 30 30" style="enable-background:new 0 0 30 30;" xml:space="preserve">
<style type="text/css">
	.st0{fill:#FFFFFF;}
</style>
<g id="To_Do">
	<polygon class="st0" points="12.4,18.35 12.4,18.35 12.4,18.35 	"/>
	<polygon class="st0" points="15.67,15.02 12.4,18.35 18.57,24.61 29,14.03 26.62,11.57 18.64,18.29 	"/>
	<path class="st0" d="M23.22,27.31H4.09V5.39h2.27v0.88c0,0.46,0.37,0.84,0.83,0.84H7.4c0.46,0,0.83-0.38,0.83-0.84V5.39h2.43v0.88
		c0,0.46,0.37,0.84,0.83,0.84h0.21c0.46,0,0.83-0.38,0.83-0.84V5.39h2.43v0.88c0,0.46,0.37,0.84,0.83,0.84H16
		c0.46,0,0.83-0.38,0.83-0.84V5.39h2.43v0.88c0,0.46,0.37,0.84,0.83,0.84h0.21c0.46,0,0.83-0.38,0.83-0.84V5.39h0.5l1.58,1.58v4.73
		l1.66-1.4V6.25L22.31,3.7h-1.18V2.84c0-0.46-0.37-0.84-0.83-0.84H20.1c-0.46,0-0.83,0.38-0.83,0.84V3.7h-2.43V2.84
		C16.84,2.38,16.46,2,16,2H15.8c-0.46,0-0.83,0.38-0.83,0.84V3.7h-2.43V2.84C12.53,2.38,12.16,2,11.7,2h-0.21
		c-0.46,0-0.83,0.38-0.83,0.84V3.7H8.23V2.84C8.23,2.38,7.86,2,7.4,2H7.19C6.73,2,6.36,2.38,6.36,2.84V3.7H2.42V29h22.46v-7.81
		l-1.66,1.69V27.31z"/>
</g>
</svg>
