<?xml version="1.0" encoding="utf-8"?>
<!-- Generator: Adobe Illustrator 23.0.4, SVG Export Plug-In . SVG Version: 6.00 Build 0)  -->
<svg version="1.1" id="Layer_1" xmlns="http://www.w3.org/2000/svg" xmlns:xlink="http://www.w3.org/1999/xlink" x="0px" y="0px"
	 viewBox="0 0 30 30" style="enable-background:new 0 0 30 30;" xml:space="preserve">
<style type="text/css">
	.st0{fill:#FFFFFF;}
</style>
<g id="Add_Favorite_2">
	<g>
		<path class="st0" d="M14.81,23.91C8.01,18.79,4.39,14.16,4.02,10.13V8.79c0.3-3.21,2.24-4.55,3.49-4.68
			c0.34-0.03,0.66-0.05,0.96-0.05c1.8,0,2.54,0.56,4.03,2.35l2.31,2.8l2.31-2.8c1.48-1.79,2.23-2.35,4.03-2.35
			c0.29,0,0.62,0.02,0.96,0.05c1.25,0.12,3.19,1.47,3.49,4.68v1.34c0,0.02-0.01,0.05-0.01,0.07l0.16,3.13h2.19
			c0.38-1.07,0.6-2.1,0.67-3.07v-1.6c-0.38-4.81-3.51-7.33-6.21-7.6C21.96,1.02,21.54,1,21.15,1c-3.13,0-4.63,1.37-6.34,3.45
			C13.09,2.37,11.59,1,8.47,1C8.08,1,7.66,1.02,7.22,1.07C4.51,1.33,1.38,3.85,1,8.66v1.6c0.35,4.61,3.78,10.29,13.81,17.42
			c1.14-0.81,2.2-1.61,3.18-2.39v-2.07h-2.3C15.4,23.46,15.11,23.68,14.81,23.91z"/>
	</g>
	<g>
		<polygon class="st0" points="24.2,17.04 24.2,12.18 20.09,12.18 20.09,17.04 15.3,17.04 15.3,21.21 20.09,21.21 20.09,26.08 
			24.2,26.08 24.2,21.21 29,21.21 29,17.04 		"/>
	</g>
</g>
</svg>
