<?xml version="1.0" encoding="utf-8"?>
<!-- Generator: Adobe Illustrator 23.0.4, SVG Export Plug-In . SVG Version: 6.00 Build 0)  -->
<svg version="1.1" id="Layer_1" xmlns="http://www.w3.org/2000/svg" xmlns:xlink="http://www.w3.org/1999/xlink" x="0px" y="0px"
	 viewBox="0 0 30 30" style="enable-background:new 0 0 30 30;" xml:space="preserve">
<style type="text/css">
	.st0{fill:#FFFFFF;}
</style>
<g id="Tools">
	<path class="st0" d="M23.55,19.1L23.55,19.1c-0.08,0-0.17,0.01-0.25,0.01l-8.41-8.41c-0.59-0.59-1.44-0.75-2.19-0.5l1.31-3.85
		c0.22-0.63,0-1.57-0.48-2.04l-2.75-2.75c-0.47-0.47-1.41-0.69-2.04-0.48L7.1,1.65C6.83,1.74,6.66,1.89,6.61,2.08
		c-0.05,0.19,0.04,0.4,0.24,0.6l1.77,1.77c0.62,0.63,0.62,1.65,0,2.27l-1.9,1.9c-0.3,0.3-0.7,0.47-1.13,0.47
		c-0.43,0-0.84-0.17-1.14-0.47L2.69,6.86c-0.2-0.2-0.42-0.29-0.61-0.24C1.89,6.66,1.74,6.83,1.65,7.1L1.08,8.75
		c-0.22,0.64,0,1.57,0.48,2.04l2.75,2.75c0.47,0.47,1.41,0.69,2.04,0.48l3.85-1.31c-0.25,0.74-0.09,1.6,0.49,2.19l8.41,8.41
		c-0.01,0.08-0.01,0.16-0.01,0.25c0,2.46,1.99,4.45,4.45,4.45c2.46,0,4.45-1.99,4.45-4.45C28,21.09,26.01,19.1,23.55,19.1z
		 M23.55,25.88c-1.29,0-2.33-1.05-2.33-2.33c0-0.62,0.24-1.21,0.68-1.65c0.44-0.44,1.02-0.68,1.65-0.68c1.28,0,2.33,1.05,2.33,2.33
		C25.88,24.84,24.83,25.88,23.55,25.88z"/>
</g>
</svg>
