<?xml version="1.0" encoding="utf-8"?>
<!-- Generator: Adobe Illustrator 23.0.4, SVG Export Plug-In . SVG Version: 6.00 Build 0)  -->
<svg version="1.1" id="Layer_1" xmlns="http://www.w3.org/2000/svg" xmlns:xlink="http://www.w3.org/1999/xlink" x="0px" y="0px"
	 viewBox="0 0 30 30" style="enable-background:new 0 0 30 30;" xml:space="preserve">
<style type="text/css">
	.st0{fill:#FFFFFF;}
</style>
<g id="Tools">
	<g id="Go_to_Web">
		<polygon class="st0" points="17.03,12.85 17.03,25.68 20.32,22.38 22.71,27 24.45,26.1 22.15,21.65 26.59,21.65 		"/>
		<path class="st0" d="M26.82,15.61c0.02-0.12,0.04-0.24,0.06-0.37c0.01-0.07,0.02-0.13,0.03-0.2c0.01-0.12,0.03-0.24,0.04-0.35
			c0.01-0.09,0.02-0.18,0.02-0.28c0.01-0.1,0.01-0.19,0.02-0.29c0.01-0.19,0.02-0.39,0.02-0.58c0-0.19-0.01-0.38-0.01-0.57
			c-0.01-0.12-0.02-0.24-0.02-0.36c0-0.06-0.01-0.12-0.01-0.19c-0.01-0.15-0.03-0.3-0.05-0.45c0-0.02-0.01-0.05-0.01-0.07
			c-0.02-0.16-0.05-0.32-0.07-0.47c0-0.01,0-0.02,0-0.03c0,0,0,0,0,0c-0.95-5.28-5.32-9.36-10.72-9.85c-0.01,0-0.02,0-0.02,0
			c-0.17-0.01-0.33-0.03-0.5-0.04C15.38,1.51,15.19,1.5,15,1.5s-0.38,0.01-0.56,0.01c-0.17,0.01-0.33,0.02-0.5,0.04
			c-0.01,0-0.02,0-0.02,0C8.51,2.04,4.14,6.12,3.19,11.4c0,0,0,0,0,0c0,0.01,0,0.02-0.01,0.03c-0.03,0.16-0.05,0.31-0.07,0.47
			c0,0.02-0.01,0.05-0.01,0.07c-0.02,0.15-0.04,0.3-0.05,0.45c-0.01,0.06-0.01,0.12-0.01,0.19c-0.01,0.12-0.02,0.24-0.02,0.36
			C3.01,13.16,3,13.35,3,13.54c0,0.19,0.01,0.38,0.01,0.57c0.01,0.12,0.02,0.25,0.03,0.37c0,0.06,0.01,0.11,0.01,0.17
			c0.01,0.16,0.03,0.31,0.05,0.47c0,0.02,0,0.04,0.01,0.05c0.02,0.17,0.05,0.33,0.08,0.5c0,0,0,0.01,0,0.01h0
			c0.88,4.93,4.76,8.82,9.67,9.7c0,0,0,0,0,0c0.04,0.01,0.07,0.01,0.11,0.02c0.11,0.02,0.22,0.04,0.34,0.05
			c0.08,0.01,0.16,0.02,0.23,0.03c0.11,0.01,0.21,0.03,0.32,0.04c0.1,0.01,0.21,0.02,0.31,0.02c0.08,0.01,0.17,0.01,0.25,0.02
			c0.19,0.01,0.38,0.01,0.58,0.01c0.01,0,0.02,0,0.04,0v-0.11v-2.69c-0.01,0-0.02,0-0.04,0c-0.54,0-1.06-0.05-1.57-0.14
			c-0.39-1.21-0.76-2.8-0.98-4.77c0.83,0.05,1.68,0.08,2.56,0.08c0.01,0,0.02,0,0.04,0v-1.6c-0.01,0-0.02,0-0.04,0
			c-0.96,0-1.86-0.03-2.7-0.09c-0.06-0.85-0.09-1.75-0.09-2.71c0-0.96,0.03-1.87,0.09-2.71c0.84-0.06,1.74-0.09,2.7-0.09
			c0.96,0,1.85,0.03,2.7,0.09c0,0.05,0.01,0.09,0.01,0.14c0.24,0.09,0.48,0.22,0.67,0.41l0.98,0.91c-0.01-0.44-0.04-0.88-0.06-1.31
			c1.97,0.23,3.56,0.59,4.76,0.99c0.09,0.51,0.14,1.04,0.14,1.58c0,0.54-0.05,1.06-0.14,1.57c-0.38,0.12-0.79,0.24-1.23,0.36
			l0.94,0.87c0,0,0,0,0,0l2.22,2.04c0.37-0.85,0.65-1.76,0.82-2.7c0,0,0,0,0,0C26.81,15.65,26.81,15.63,26.82,15.61z M11.61,4.96
			C11.26,6.25,11,7.73,10.83,9.35c-1.62,0.17-3.1,0.44-4.38,0.78C7.38,7.78,9.26,5.9,11.61,4.96z M11.61,22.12
			c-2.35-0.94-4.22-2.82-5.16-5.17c1.28,0.34,2.77,0.61,4.38,0.78C11,19.34,11.26,20.83,11.61,22.12z M10.69,16.1
			c-1.96-0.23-3.55-0.59-4.76-0.98C5.84,14.6,5.8,14.08,5.8,13.54c0-0.54,0.05-1.07,0.14-1.58c1.21-0.4,2.8-0.76,4.76-0.99
			c-0.05,0.83-0.08,1.69-0.08,2.57C10.61,14.42,10.64,15.27,10.69,16.1z M15,9.14c-0.87,0-1.73,0.03-2.56,0.08
			c0.23-1.97,0.59-3.56,0.98-4.77c0.51-0.09,1.04-0.14,1.57-0.14c0.53,0,1.06,0.05,1.57,0.14c0.39,1.21,0.76,2.8,0.98,4.78
			C16.72,9.17,15.87,9.14,15,9.14z M19.17,9.35C19,7.73,18.73,6.25,18.39,4.96c2.35,0.94,4.22,2.82,5.16,5.18
			C22.27,9.79,20.79,9.52,19.17,9.35z"/>
	</g>
</g>
</svg>
